# xmcd CD database file
#
# Track frame offsets:
#	150
#	5540
#	17605
#	26975
#	43375
#	56380
#	70387
#	87920
#	106040
#	113122
#	126220
#	153217
#	168042
#	183500
#	195997
#	217642
#	230920
#	239952
#	257872
#	268552
#
# Disc length: 3652 seconds
#
# Revision: 0
# Processed by: cddbd v1.5.1PL0 Copyright (c) Steve Scherf et al.
# Submitted via: CDex 1.51
#
DISCID=110e4214
DTITLE=渡辺宙明 - 大戦隊ゴーグル?　MUSIC COLLECTION
DYEAR=1996
DGENRE=サウンドトラック (一般)
TTITLE0=大戦隊ゴーグル?/MOJO・こおろぎ’７３・ザ・チャープス
TTITLE1=予兆
TTITLE2=悪魔は深淵より
TTITLE3=未来科学研究所
TTITLE4=大戦隊ゴーグル?（ALTERNATE VERSION INSTRUMENTAL)
TTITLE5=闇の居城
TTITLE6=フラッシュ！ゴーグル?
TTITLE7=忍び寄る暗黒科学
TTITLE8=ブリッジ・コレクション
TTITLE9=大戦隊ゴーグル?(INSTRUMENTAL VERSION)
TTITLE10=休息の時
TTITLE11=エレクトリック・マジック・コンボイ(INSTRUMENTAL VERSION)
TTITLE12=夕闇の中で
TTITLE13=ストップ・ザ・バトル(INSTRUMENTAL VERSION)
TTITLE14=戦え！若き獅子たち
TTITLE15=出撃！ゴーグルロボ
TTITLE16=巨大ロボの猛威
TTITLE17=唸れ！地球剣
TTITLE18=輝く未来へ
TTITLE19=ストップ・ザ・バトル/MOJO・こおろぎ’７３・ザ・チャープス
EXTD=YEAR: 1996/04/20
EXTT0=
EXTT1=
EXTT2=
EXTT3=
EXTT4=
EXTT5=
EXTT6=
EXTT7=
EXTT8=
EXTT9=
EXTT10=
EXTT11=
EXTT12=
EXTT13=
EXTT14=
EXTT15=
EXTT16=
EXTT17=
EXTT18=
EXTT19=
PLAYORDER=
